<svg width="70" height="72" viewBox="0 0 70 72" fill="none" xmlns="http://www.w3.org/2000/svg">
<ellipse cx="35" cy="35.7544" rx="35" ry="35.2544" fill="white"/>
<path d="M27.7169 47.9944C27.7169 48.1675 27.5129 48.306 27.2556 48.306C26.9629 48.332 26.7589 48.1935 26.7589 47.9944C26.7589 47.8213 26.9629 47.6828 27.2202 47.6828C27.4863 47.6568 27.7169 47.7953 27.7169 47.9944ZM24.9581 47.6049C24.896 47.778 25.0734 47.9771 25.3395 48.029C25.5702 48.1156 25.8363 48.029 25.8895 47.8559C25.9427 47.6828 25.7742 47.4837 25.5081 47.4058C25.2774 47.3452 25.0202 47.4317 24.9581 47.6049ZM28.879 47.4577C28.6218 47.5183 28.4444 47.6828 28.471 47.8819C28.4976 48.055 28.7282 48.1675 28.9944 48.1069C29.2516 48.0463 29.429 47.8819 29.4024 47.7087C29.3758 47.5443 29.1363 47.4317 28.879 47.4577ZM34.7161 14.2871C22.4121 14.2871 13 23.4021 13 35.4083C13 45.008 19.1919 53.2228 28.0363 56.1139C29.1718 56.313 29.571 55.6292 29.571 55.0665C29.571 54.5298 29.5444 51.5694 29.5444 49.7516C29.5444 49.7516 23.3347 51.05 22.0306 47.1721C22.0306 47.1721 21.0194 44.6531 19.5645 44.0039C19.5645 44.0039 17.5331 42.6449 19.7065 42.6708C19.7065 42.6708 21.9153 42.844 23.1306 44.9041C25.0734 48.2454 28.329 47.2846 29.5976 46.7133C29.8016 45.3283 30.3782 44.3674 31.0169 43.7961C26.0581 43.2595 21.0548 42.5583 21.0548 34.231C21.0548 31.8506 21.729 30.656 23.1484 29.1325C22.9177 28.5699 22.1637 26.25 23.379 23.2549C25.2331 22.6923 29.5 25.5921 29.5 25.5921C31.2742 25.1074 33.1815 24.8563 35.071 24.8563C36.9605 24.8563 38.8677 25.1074 40.6419 25.5921C40.6419 25.5921 44.9089 22.6836 46.7629 23.2549C47.9782 26.2587 47.2242 28.5699 46.9935 29.1325C48.4129 30.6647 49.2823 31.8592 49.2823 34.231C49.2823 42.5843 44.0573 43.2508 39.0984 43.7961C39.9145 44.48 40.6065 45.7784 40.6065 47.8126C40.6065 50.7298 40.5798 54.3394 40.5798 55.0492C40.5798 55.6119 40.9879 56.2957 42.1145 56.0966C50.9855 53.2228 57 45.008 57 35.4083C57 23.4021 47.0202 14.2871 34.7161 14.2871ZM21.6226 44.1424C21.5073 44.2289 21.5339 44.428 21.6847 44.5925C21.8266 44.731 22.0306 44.7916 22.146 44.6791C22.2613 44.5925 22.2347 44.3934 22.0839 44.2289C21.9419 44.0904 21.7379 44.0299 21.6226 44.1424ZM20.6645 43.4412C20.6024 43.5538 20.6911 43.6923 20.8685 43.7788C21.0105 43.8654 21.1879 43.8394 21.25 43.7182C21.3121 43.6057 21.2234 43.4672 21.046 43.3806C20.8685 43.3287 20.7266 43.3547 20.6645 43.4412ZM23.5387 46.5228C23.3968 46.6354 23.45 46.8951 23.654 47.0595C23.8581 47.2586 24.1153 47.2846 24.2306 47.1461C24.346 47.0336 24.2927 46.7739 24.1153 46.6094C23.9202 46.4103 23.654 46.3843 23.5387 46.5228ZM22.5274 45.2504C22.3855 45.3369 22.3855 45.562 22.5274 45.7611C22.6694 45.9602 22.9089 46.0468 23.0242 45.9602C23.1661 45.8477 23.1661 45.6226 23.0242 45.4235C22.9 45.2244 22.6694 45.1379 22.5274 45.2504Z" fill="#3D4E60"/>
</svg>
