<svg width="397" height="186" viewBox="0 0 397 186" fill="none" xmlns="http://www.w3.org/2000/svg">
<rect x="54" y="60" width="54" height="74" fill="#FBA46A"/>
<rect x="45" y="100" width="16" height="86" fill="#FBA46A"/>
<rect x="56" y="128" width="35" height="34" fill="#FBA46A"/>
<rect x="69" y="111" width="35" height="34" fill="#FBA46A"/>
<path d="M108 134.712C102.455 167.399 65.6585 188.696 57.5079 185.724C46.2411 185.724 46 177.163 46 168.531C46 159.898 55.1336 152.9 66.4004 152.9C77.6672 152.9 108 126.08 108 134.712Z" fill="#FBA46A"/>
<rect width="54" height="133" fill="#F76707"/>
<path d="M110 50C110 77.6142 86.2711 100 57 100C27.7289 100 4 77.6142 4 50C4 22.3858 27.7289 0 57 0C86.2711 0 110 22.3858 110 50Z" fill="#F76707"/>
<rect x="45" y="100" width="12" height="35" fill="#FBA46A"/>
<path d="M156.057 110V51.8182H179.011C183.424 51.8182 187.184 52.661 190.29 54.3466C193.396 56.0133 195.763 58.3333 197.392 61.3068C199.04 64.2614 199.864 67.6705 199.864 71.5341C199.864 75.3977 199.03 78.8068 197.364 81.7614C195.697 84.7159 193.282 87.017 190.119 88.6648C186.975 90.3125 183.169 91.1364 178.699 91.1364H164.068V81.2784H176.71C179.078 81.2784 181.028 80.8712 182.562 80.0568C184.116 79.2235 185.271 78.0777 186.028 76.6193C186.805 75.142 187.193 73.447 187.193 71.5341C187.193 69.6023 186.805 67.9167 186.028 66.4773C185.271 65.0189 184.116 63.892 182.562 63.0966C181.009 62.2822 179.04 61.875 176.653 61.875H168.358V110H156.057ZM218.898 110.824C216.114 110.824 213.633 110.341 211.455 109.375C209.277 108.39 207.553 106.941 206.284 105.028C205.034 103.097 204.409 100.691 204.409 97.8125C204.409 95.3883 204.854 93.3523 205.744 91.7045C206.634 90.0568 207.847 88.7311 209.381 87.7273C210.915 86.7235 212.657 85.9659 214.608 85.4545C216.578 84.9432 218.642 84.5833 220.801 84.375C223.339 84.1098 225.384 83.8636 226.938 83.6364C228.491 83.3902 229.617 83.0303 230.318 82.5568C231.019 82.0833 231.369 81.3826 231.369 80.4545V80.2841C231.369 78.4848 230.801 77.0928 229.665 76.108C228.547 75.1231 226.956 74.6307 224.892 74.6307C222.714 74.6307 220.981 75.1136 219.693 76.0795C218.405 77.0265 217.553 78.2197 217.136 79.6591L205.943 78.75C206.511 76.0985 207.629 73.8068 209.295 71.875C210.962 69.9242 213.112 68.428 215.744 67.3864C218.396 66.3258 221.464 65.7955 224.949 65.7955C227.373 65.7955 229.693 66.0795 231.909 66.6477C234.144 67.2159 236.123 68.0966 237.847 69.2898C239.589 70.483 240.962 72.017 241.966 73.892C242.97 75.7481 243.472 77.9735 243.472 80.5682V110H231.994V103.949H231.653C230.953 105.312 230.015 106.515 228.841 107.557C227.667 108.58 226.256 109.384 224.608 109.972C222.96 110.54 221.057 110.824 218.898 110.824ZM222.364 102.472C224.144 102.472 225.716 102.121 227.08 101.42C228.443 100.701 229.513 99.7348 230.29 98.5227C231.066 97.3106 231.455 95.9375 231.455 94.4034V89.7727C231.076 90.0189 230.555 90.2462 229.892 90.4545C229.248 90.6439 228.519 90.8239 227.705 90.9943C226.89 91.1458 226.076 91.2879 225.261 91.4205C224.447 91.5341 223.708 91.6383 223.045 91.733C221.625 91.9413 220.384 92.2727 219.324 92.7273C218.263 93.1818 217.439 93.7973 216.852 94.5739C216.265 95.3314 215.972 96.2784 215.972 97.4148C215.972 99.0625 216.568 100.322 217.761 101.193C218.973 102.045 220.508 102.472 222.364 102.472ZM252.861 126.364V66.3636H264.793V73.6932H265.332C265.863 72.5189 266.63 71.3258 267.634 70.1136C268.656 68.8826 269.982 67.8598 271.611 67.0455C273.259 66.2121 275.304 65.7955 277.747 65.7955C280.929 65.7955 283.865 66.6288 286.554 68.2955C289.243 69.9432 291.393 72.4337 293.003 75.767C294.613 79.0814 295.418 83.2386 295.418 88.2386C295.418 93.1061 294.632 97.2159 293.06 100.568C291.507 103.902 289.385 106.43 286.696 108.153C284.026 109.858 281.033 110.71 277.719 110.71C275.37 110.71 273.372 110.322 271.724 109.545C270.096 108.769 268.76 107.794 267.719 106.619C266.677 105.426 265.882 104.223 265.332 103.011H264.963V126.364H252.861ZM264.707 88.1818C264.707 90.7765 265.067 93.0398 265.787 94.9716C266.507 96.9034 267.548 98.4091 268.912 99.4886C270.276 100.549 271.933 101.08 273.884 101.08C275.853 101.08 277.52 100.54 278.884 99.4602C280.247 98.3617 281.279 96.8466 281.98 94.9148C282.7 92.964 283.06 90.7197 283.06 88.1818C283.06 85.6629 282.709 83.447 282.009 81.5341C281.308 79.6212 280.276 78.125 278.912 77.0455C277.548 75.9659 275.872 75.4261 273.884 75.4261C271.914 75.4261 270.247 75.947 268.884 76.9886C267.539 78.0303 266.507 79.5076 265.787 81.4205C265.067 83.3333 264.707 85.5871 264.707 88.1818ZM323.372 110.852C318.884 110.852 315.02 109.943 311.781 108.125C308.562 106.288 306.08 103.693 304.338 100.341C302.596 96.9697 301.724 92.983 301.724 88.3807C301.724 83.892 302.596 79.9527 304.338 76.5625C306.08 73.1723 308.533 70.5303 311.696 68.6364C314.878 66.7424 318.609 65.7955 322.889 65.7955C325.768 65.7955 328.448 66.2595 330.929 67.1875C333.429 68.0966 335.607 69.4697 337.463 71.3068C339.338 73.1439 340.796 75.4545 341.838 78.2386C342.88 81.0038 343.401 84.2424 343.401 87.9545V91.2784H306.554V83.7784H332.009C332.009 82.036 331.63 80.4924 330.872 79.1477C330.115 77.803 329.063 76.7519 327.719 75.9943C326.393 75.2178 324.849 74.8295 323.088 74.8295C321.251 74.8295 319.622 75.2557 318.202 76.108C316.8 76.9413 315.702 78.0682 314.906 79.4886C314.111 80.8902 313.704 82.4527 313.685 84.1761V91.3068C313.685 93.4659 314.082 95.3314 314.878 96.9034C315.692 98.4754 316.838 99.6875 318.315 100.54C319.793 101.392 321.545 101.818 323.571 101.818C324.916 101.818 326.147 101.629 327.264 101.25C328.382 100.871 329.338 100.303 330.134 99.5455C330.929 98.7879 331.535 97.8598 331.952 96.7614L343.145 97.5C342.577 100.189 341.412 102.538 339.651 104.545C337.908 106.534 335.654 108.087 332.889 109.205C330.143 110.303 326.971 110.852 323.372 110.852ZM351.298 110V66.3636H363.031V73.9773H363.486C364.281 71.2689 365.616 69.2235 367.491 67.8409C369.366 66.4394 371.526 65.7386 373.969 65.7386C374.575 65.7386 375.228 65.7765 375.929 65.8523C376.63 65.928 377.245 66.0322 377.776 66.1648V76.9034C377.207 76.733 376.421 76.5814 375.418 76.4489C374.414 76.3163 373.495 76.25 372.662 76.25C370.882 76.25 369.291 76.6383 367.889 77.4148C366.507 78.1723 365.408 79.233 364.594 80.5966C363.798 81.9602 363.401 83.5322 363.401 85.3125V110H351.298Z" fill="black"/>
<circle cx="389.5" cy="59.5" r="7" fill="white" stroke="black"/>
<circle cx="387" cy="58" r="1" fill="#F76707"/>
<circle cx="392" cy="58" r="1" fill="#F76707"/>
<line x1="387.383" y1="60.6786" x2="389.701" y2="63.4406" stroke="#F76707"/>
<line x1="389.617" y1="63.4406" x2="391.935" y2="60.6786" stroke="#F76707"/>
</svg>
